<svg width="36" height="36" viewBox="0 0 36 36" fill="none" xmlns="http://www.w3.org/2000/svg">
<path d="M12.525 4.5C14.295 4.245 16.17 6.18 16.71 8.85C17.25 11.505 16.275 13.875 14.505 14.145C12.75 14.415 10.86 12.48 10.305 9.81C9.75 7.155 10.755 4.785 12.525 4.5ZM23.25 4.5C25.035 4.785 26.025 7.155 25.5 9.81C24.93 12.48 23.055 14.415 21.285 14.145C19.5 13.875 18.525 11.505 19.08 8.85C19.62 6.18 21.495 4.245 23.25 4.5ZM4.5 11.4C6.21 10.665 8.535 12 9.75 14.325C10.89 16.695 10.5 19.185 8.805 19.92C7.11 20.655 4.8 19.335 3.615 16.98C2.43 14.625 2.85 12.12 4.5 11.4ZM31.5 11.4C33.15 12.12 33.57 14.625 32.385 16.98C31.2 19.335 28.89 20.655 27.195 19.92C25.5 19.185 25.11 16.695 26.25 14.325C27.465 12 29.79 10.665 31.5 11.4ZM28.995 27.57C29.055 28.98 27.975 30.54 26.685 31.125C24 32.355 20.82 29.805 17.835 29.805C14.85 29.805 11.64 32.46 9 31.125C7.5 30.39 6.465 28.44 6.66 26.82C6.93 24.585 9.615 23.385 11.205 21.75C13.32 19.635 14.82 15.66 17.835 15.66C20.835 15.66 22.425 19.575 24.45 21.75C26.115 23.58 28.89 25.125 28.995 27.57Z" fill="black"/>
</svg>
