<svg width="58" height="58" viewBox="0 0 58 58" fill="none" xmlns="http://www.w3.org/2000/svg">
<g clip-path="url(#clip0_2_222)">
<path d="M31.0741 11.871C33.0098 12.6494 33.77 15.6996 32.7526 18.7104C31.744 21.7061 29.3731 23.5276 27.4287 22.7644C25.4993 22.0099 24.724 18.951 25.7263 15.9314C26.7197 12.9269 29.1209 11.1229 31.0741 11.871ZM41.8989 18.1469C43.5338 19.479 43.1461 22.4504 41.0627 24.8229C38.925 27.1842 35.9002 28.04 34.2718 26.7318C32.6281 25.4147 33.0309 22.4522 35.1447 20.0972C37.2521 17.7184 40.2768 16.8625 41.8989 18.1469ZM18.9368 14.1393C21.0928 14.3981 22.6583 17.106 22.5241 20.1636C22.2879 23.2228 20.4372 25.5077 18.2963 25.2577C16.1555 25.0077 14.5964 22.3237 14.7784 19.2534C14.9604 16.183 16.8502 13.9005 18.9368 14.1393ZM46.1881 29.9386C47.4321 31.6309 46.3902 34.4049 43.8161 36.0884C41.242 37.7719 38.1381 37.7525 36.8575 36.0188C35.5768 34.2851 36.6402 31.5437 39.1776 29.8188C41.7644 28.1831 44.8923 28.1962 46.1881 29.9386ZM34.1977 44.7933C33.4332 46.2515 31.4303 47.1941 29.786 47.0297C26.3563 46.6999 24.6388 42.2654 21.626 40.5187C18.6133 38.772 13.8198 39.5733 11.9364 36.6811C10.8525 35.0615 10.949 32.4877 12.0938 30.9668C13.6741 28.8689 17.0863 29.2289 19.6478 28.5091C23.0201 27.6121 26.8601 24.4778 29.9031 26.2421C32.9311 27.9975 32.2449 32.8794 33.0161 36.2596C33.6257 39.0809 35.5225 42.2641 34.1977 44.7933Z" fill="#C7D7F0"/>
</g>
<defs>
<clipPath id="clip0_2_222">
<rect width="42" height="42" fill="white" transform="translate(21.0658) rotate(30.1037)"/>
</clipPath>
</defs>
</svg>
