<svg width="22" height="24" viewBox="0 0 22 24" fill="none" xmlns="http://www.w3.org/2000/svg">
<g clip-path="url(#clip0_103_146)">
<path d="M16.3029 8.64166C17.9078 9.74607 19.8739 10.3959 21.9973 10.3959V6.46237C21.5954 6.46253 21.1946 6.42214 20.8014 6.34188V9.43813C18.6782 9.43813 16.7124 8.78839 15.1072 7.68406V15.7113C15.1072 19.727 11.7256 22.9821 7.55461 22.9821C5.9983 22.9821 4.55172 22.5291 3.3501 21.7523C4.72159 23.1023 6.63421 23.9398 8.75013 23.9398C12.9215 23.9398 16.3031 20.6847 16.3031 16.6688V8.64166H16.3029ZM17.7782 4.67322C16.958 3.81062 16.4195 2.69586 16.3029 1.46342V0.95752H15.1697C15.455 2.52389 16.428 3.8621 17.7782 4.67322ZM5.98825 18.6708C5.52997 18.0925 5.28227 17.3849 5.28343 16.6573C5.28343 14.8207 6.83012 13.3316 8.73836 13.3316C9.09392 13.3314 9.4474 13.384 9.78635 13.4874V9.46593C9.39025 9.41371 8.99054 9.39145 8.591 9.39964V12.5297C8.25188 12.4263 7.89823 12.3737 7.5425 12.374C5.63434 12.374 4.08774 13.863 4.08774 15.6998C4.08774 16.9986 4.86078 18.1231 5.98825 18.6708Z" fill="#FF004F"/>
<path d="M15.1073 7.68397C16.7126 8.78831 18.6783 9.43804 20.8016 9.43804V6.34179C19.6164 6.09873 18.5672 5.50254 17.7783 4.67322C16.4281 3.86202 15.4552 2.52381 15.1699 0.95752H12.1933V16.6687C12.1865 18.5003 10.6425 19.9833 8.73836 19.9833C7.61639 19.9833 6.61952 19.4685 5.98826 18.6708C4.86096 18.1231 4.08783 16.9985 4.08783 15.6999C4.08783 13.8632 5.63443 12.3741 7.54259 12.3741C7.90819 12.3741 8.26055 12.4289 8.59109 12.5298V9.39973C4.4933 9.48124 1.19775 12.7045 1.19775 16.6687C1.19775 18.6477 2.0184 20.4416 3.35036 21.7524C4.55198 22.5291 5.99848 22.9822 7.55487 22.9822C11.726 22.9822 15.1074 19.7269 15.1074 15.7113L15.1073 7.68397Z" fill="#010101"/>
<path d="M20.8015 6.34179V5.50477C19.7328 5.50627 18.6851 5.21813 17.7783 4.6733C18.581 5.51927 19.6379 6.10265 20.8015 6.34196M15.1698 0.957517C15.1426 0.807854 15.1217 0.657193 15.1072 0.505903V0H10.9972V15.7113C10.9907 17.5428 9.44668 19.0258 7.54248 19.0258C7.00265 19.0266 6.4702 18.905 5.98815 18.671C6.61942 19.4686 7.61629 19.9833 8.73826 19.9833C10.6423 19.9833 12.1865 18.5004 12.1932 16.6688V0.9576L15.1698 0.957517ZM8.59124 9.39972V8.5085C8.2478 8.46333 7.90157 8.44072 7.55494 8.4408C3.38342 8.4408 0.00195312 11.696 0.00195312 15.7113C0.00195312 18.2287 1.33091 20.4473 3.35042 21.7524C2.01846 20.4416 1.19782 18.6476 1.19782 16.6687C1.19782 12.7046 4.49327 9.48124 8.59124 9.39972Z" fill="#00F2EA"/>
</g>
<defs>
<clipPath id="clip0_103_146">
<rect width="22" height="24" fill="white"/>
</clipPath>
</defs>
</svg>
