<svg width="50" height="50" viewBox="0 0 50 50" fill="none" xmlns="http://www.w3.org/2000/svg">
<g clip-path="url(#clip0_1_302)">
<path d="M26.635 10.1751C28.2941 10.8423 28.9457 13.4567 28.0737 16.0375C27.2092 18.6052 25.177 20.1665 23.5103 19.5123C21.8566 18.8656 21.192 16.2437 22.0511 13.6554C22.9026 11.0802 24.9607 9.53393 26.635 10.1751ZM35.9134 15.5544C37.3146 16.6963 36.9824 19.2432 35.1966 21.2767C33.3643 23.3007 30.7716 24.0343 29.3758 22.9129C27.967 21.7841 28.3122 19.2447 30.124 17.2262C31.9303 15.1872 34.523 14.4536 35.9134 15.5544ZM16.2316 12.1194C18.0796 12.3412 19.4214 14.6623 19.3064 17.2831C19.1039 19.9052 17.5176 21.8637 15.6826 21.6495C13.8475 21.4352 12.5112 19.1346 12.6672 16.5029C12.8232 13.8712 14.443 11.9147 16.2316 12.1194ZM39.5898 25.6617C40.6561 27.1122 39.763 29.4899 37.5567 30.9329C35.3503 32.3759 32.6898 32.3593 31.5921 30.8733C30.4944 29.3872 31.4059 27.0375 33.5808 25.5589C35.7981 24.1569 38.4791 24.1681 39.5898 25.6617ZM29.3123 38.3942C28.657 39.6441 26.9403 40.452 25.5308 40.3111C22.5911 40.0285 21.119 36.2275 18.5366 34.7303C15.9542 33.2331 11.8455 33.92 10.2312 31.4409C9.30218 30.0527 9.38484 27.8466 10.3661 26.5429C11.7207 24.7448 14.6454 25.0534 16.841 24.4364C19.7315 23.6675 23.0229 20.981 25.6313 22.4932C28.2266 23.9979 27.6385 28.1823 28.2995 31.0796C28.822 33.4979 30.4478 36.2264 29.3123 38.3942Z" fill="#0F56C3"/>
</g>
<defs>
<clipPath id="clip0_1_302">
<rect width="36" height="36" fill="white" transform="translate(18.0564) rotate(30.1037)"/>
</clipPath>
</defs>
</svg>
